<svg width="816" height="864" viewBox="0 0 816 864" fill="none" xmlns="http://www.w3.org/2000/svg">
<path fill-rule="evenodd" clip-rule="evenodd" d="M439.372 3.34486C521.758 21.605 540.981 134.194 603.61 191.934C669.396 252.584 792.491 259.288 813.078 347.875C833.49 435.71 737.866 504.744 694.699 583.903C655.113 656.497 636.875 743.249 571.06 791.694C500.654 843.518 408.619 879.787 325.888 855.377C245.596 831.688 217.548 733.327 160.655 670.606C108.469 613.074 26.6323 579.586 6.66719 503.456C-13.8387 425.264 18.7896 342.95 55.8676 271.035C91.7877 201.366 148.58 149.432 212.03 105.143C282.195 56.1675 356.923 -14.9294 439.372 3.34486Z" fill="url(#paint0_linear_94_13)" fill-opacity="0.5"/>
<defs>
<linearGradient id="paint0_linear_94_13" x1="7.91865" y1="380.342" x2="535.333" y2="721.688" gradientUnits="userSpaceOnUse">
<stop stop-color="#57B8FF"/>
<stop offset="0.955972" stop-color="#1D3DEA" stop-opacity="0.4"/>
</linearGradient>
</defs>
</svg>
