<svg width="864" height="961" viewBox="0 0 864 961" fill="none" xmlns="http://www.w3.org/2000/svg">
<path fill-rule="evenodd" clip-rule="evenodd" d="M408.043 0.917418C498.649 8.95959 535.203 130.392 610.322 184.91C689.227 242.176 821.677 231.48 856.273 326.223C890.575 420.161 798.247 510.406 763.398 604.115C731.439 690.051 724.3 788.476 660.886 851.616C593.049 919.161 499.893 972.718 408.043 957.94C318.901 943.597 274.944 839.165 205.244 778.306C141.311 722.483 49.1243 697.554 16.9648 616.468C-16.0659 533.187 7.07732 437.545 36.4535 352.727C64.9124 270.557 118.192 204.891 179.67 146.685C247.655 82.3193 317.366 -7.13098 408.043 0.917418Z" fill="url(#paint0_linear_94_12)" fill-opacity="0.5"/>
<defs>
<linearGradient id="paint0_linear_94_12" x1="0.784672" y1="480.41" x2="766.031" y2="719.951" gradientUnits="userSpaceOnUse">
<stop stop-color="#57B8FF"/>
<stop offset="0.955972" stop-color="#1D3DEA" stop-opacity="0.5"/>
</linearGradient>
</defs>
</svg>
