<svg width="45" height="65" viewBox="0 0 45 65" fill="none" xmlns="http://www.w3.org/2000/svg">
<path d="M24.2019 63.8209C24.1471 63.7158 24.0062 63.4472 23.889 63.2236C23.7714 63.0005 23.5824 62.6397 23.4687 62.4226C23.3549 62.2055 23.2581 62.0247 23.2538 62.0204C23.2496 62.0165 23.1294 62.2094 22.9863 62.4494C22.8437 62.6899 22.721 62.8863 22.7142 62.8863C22.7078 62.8863 22.6654 62.8547 22.6204 62.8166C22.5754 62.7781 22.124 62.3975 21.6175 61.9707C20.7361 61.2276 20.6151 61.1255 20.1795 60.7579C19.6598 60.3189 19.5129 60.1952 19.338 60.0477C19.234 59.9599 19.1049 59.8509 19.0519 59.8059C18.9903 59.754 18.9538 59.7298 18.9517 59.7398C18.9483 59.7549 19.034 60.376 19.0472 60.4305C19.0523 60.4517 19.0502 60.4569 19.0378 60.4521C19.0289 60.4486 18.764 60.3699 18.4494 60.2774C18.1344 60.1848 17.7552 60.0732 17.6071 60.0295C17.4589 59.9859 17.1961 59.9084 17.0228 59.8578C16.85 59.8072 16.6428 59.7458 16.5622 59.722C16.4819 59.6978 16.2722 59.6364 16.096 59.5845C15.9202 59.533 15.6243 59.4461 15.4383 59.3912L15.1012 59.2917L14.7871 59.0741C14.1893 58.6598 13.9524 58.4976 13.946 58.4976C13.9426 58.4976 13.9383 58.6987 13.9366 58.9439L13.9337 59.3903L13.7358 59.2216C13.4386 58.9677 12.6022 58.2511 12.2702 57.9656C12.1089 57.8272 11.8087 57.5694 11.6028 57.3934C11.3969 57.2169 11.0937 56.957 10.9286 56.8156C10.7638 56.6737 10.5057 56.4523 10.355 56.3234C9.79241 55.8415 9.291 55.4116 9.18188 55.3182C9.12032 55.265 9.02097 55.1798 8.96111 55.1292L8.85242 55.0366L8.54588 54.3727C8.37775 54.0073 8.20113 53.6262 8.15442 53.5255C8.1073 53.4247 7.988 53.166 7.8895 52.9511C7.791 52.7357 7.70608 52.561 7.70056 52.5623C7.69207 52.5649 7.38892 53.0471 7.05012 53.5973C6.98686 53.6998 6.92487 53.7971 6.91214 53.8135L6.88878 53.8433L6.74188 53.4039C6.60347 52.99 6.53767 52.7949 6.15428 51.6544C6.06851 51.3997 5.93563 51.0031 5.85835 50.7734C5.78151 50.5437 5.5913 49.9771 5.43591 49.5144C5.28051 49.052 5.1179 48.568 5.07459 48.4387C5.03129 48.3098 4.90222 47.9262 4.78759 47.5862C4.67295 47.2463 4.54219 46.8575 4.49761 46.7225C4.4526 46.5871 4.35495 46.2961 4.28065 46.0759C4.20677 45.8553 4.07983 45.4769 3.99873 45.2347C3.91764 44.9925 3.84504 44.7814 3.8374 44.7654C3.82679 44.7429 3.82254 44.127 3.81787 41.9402L3.81235 39.1432L3.4192 38.8923C3.20309 38.7539 2.7229 38.4477 2.35225 38.2111C1.98118 37.9746 1.52562 37.6839 1.33923 37.565L1 37.3487L1.10869 37.1894C1.16856 37.1017 1.28573 36.9294 1.36895 36.8065C1.45259 36.6836 1.58888 36.4828 1.67252 36.3602C1.75573 36.2376 1.89244 36.0367 1.97566 35.9137C2.0593 35.7907 2.15526 35.6493 2.18922 35.5993C2.32636 35.3979 2.46987 35.1861 2.56794 35.0405L2.67111 34.8869L2.32635 34.6444C2.13657 34.511 1.77399 34.2562 1.52095 34.0782C1.26748 33.9002 1.0535 33.7478 1.04501 33.7396C1.03015 33.7252 1.29763 33.3241 2.50383 31.5539C2.58704 31.4314 2.75305 31.1873 2.87235 31.0113C2.99166 30.8353 3.20394 30.5222 3.34405 30.3156C3.48416 30.109 3.60771 29.9263 3.61832 29.9097L3.63743 29.8795L3.04515 29.4587C2.71951 29.2271 2.35225 28.966 2.2287 28.8784C2.10473 28.7908 2.00029 28.7157 2.00029 28.7157C2.00029 28.7157 2.02067 28.6772 2.04996 28.6341C2.07925 28.591 2.1421 28.4991 2.18922 28.4299C2.23635 28.3607 2.3081 28.2551 2.34843 28.1953C2.38877 28.1355 2.44651 28.0502 2.47708 28.0057C2.50723 27.9612 2.65327 27.7461 2.80145 27.5275C2.94963 27.309 3.14196 27.0261 3.22857 26.8989C3.3156 26.7717 3.48755 26.5182 3.61153 26.3357C3.73508 26.1532 4.07558 25.6517 4.36811 25.2213C4.66021 24.7908 4.9001 24.431 4.90095 24.4215C4.9018 24.4068 4.3991 24.0986 3.55166 23.5947L3.43703 23.5266L3.52958 23.392C3.58053 23.318 3.67012 23.1865 3.72871 23.0998C3.78688 23.0131 3.88495 22.8689 3.94609 22.7794C4.00723 22.6898 4.1346 22.5023 4.22928 22.3625C4.32396 22.2227 4.41821 22.0837 4.43901 22.0535C4.45982 22.0233 4.74385 21.6047 5.07078 21.1232C5.39769 20.6417 5.69574 20.203 5.73268 20.1481C5.77004 20.0933 6.04092 19.6946 6.3343 19.2621C6.92402 18.3929 7.89034 16.9698 8.12046 16.6316C8.34166 16.3064 8.59725 15.9298 8.78873 15.6475C8.88256 15.5091 9.05621 15.2523 9.17509 15.077C9.29397 14.9018 9.38865 14.7554 9.38483 14.7519C9.38143 14.7484 9.27868 14.7693 9.15684 14.7984C9.03456 14.8274 8.82354 14.8774 8.68768 14.9095C8.55182 14.9416 8.40152 14.9772 8.35355 14.9885C8.29071 15.0034 8.26397 15.0056 8.25675 14.9964C8.24444 14.9801 8.01941 14.5366 8.01941 14.5285C8.01941 14.5251 8.10645 14.4429 8.21302 14.3458C8.43464 14.144 9.79921 12.8977 9.96819 12.7425C10.0302 12.6858 10.1236 12.6001 10.1762 12.5519C10.2866 12.4506 10.5108 12.2458 10.8836 11.9055C11.2143 11.6037 11.8974 10.9789 12.0469 10.8418C12.1089 10.7849 12.3008 10.6095 12.4732 10.4521C13.0191 9.95385 13.1809 9.8046 13.1835 9.79638C13.1852 9.79201 12.9703 9.68042 12.7062 9.54838C12.4422 9.41638 11.9 9.14411 11.5017 8.94343C11.1031 8.74274 10.7065 8.54366 10.6199 8.50101C10.5333 8.45841 10.1996 8.29099 9.8786 8.12901C9.5572 7.96704 9.15258 7.76371 8.97979 7.67717C8.58706 7.48068 8.0364 7.20417 7.39572 6.88178C7.124 6.74494 6.80556 6.58534 6.68796 6.52704C6.57078 6.46878 6.19674 6.28085 5.85708 6.10941C5.517 5.93796 5.15314 5.75514 5.04827 5.70315C4.94298 5.65112 4.59441 5.47634 4.27301 5.31471C3.95161 5.15308 3.49902 4.92537 3.26678 4.80876L2.84475 4.59666L4.81985 3.59064L6.79538 2.58462L10.0442 2.58756L13.2934 2.59046L13.6586 2.70828C13.8594 2.77307 14.0793 2.84344 14.1472 2.86467C14.2152 2.88591 14.4096 2.94707 14.5794 3.00057C14.7497 3.05407 14.9064 3.10286 14.928 3.109C14.9633 3.11903 16.6836 3.65794 17.489 3.91135C17.6652 3.96671 18.7092 4.29399 19.8089 4.63857L21.8082 5.26515L21.8952 5.37699C21.9708 5.47418 21.9878 5.48983 22.0247 5.49649C22.0846 5.50739 23.3642 5.76465 23.3961 5.77222C23.4105 5.77568 23.4207 5.77365 23.4186 5.76772C23.4164 5.7618 23.354 5.70146 23.2797 5.63364C23.2058 5.56583 23.0263 5.40143 22.881 5.2683C22.7358 5.13518 22.4858 4.90586 22.3249 4.75876C22.1644 4.61167 21.9848 4.44684 21.9262 4.39251C21.8676 4.33819 21.2889 3.80776 20.6402 3.21379C19.9914 2.61979 19.3877 2.06665 19.2985 1.98451C19.2089 1.90238 19.0824 1.7863 19.0166 1.72648C18.4562 1.21724 18.2218 0.995192 18.2503 1.00008C18.2673 1.00298 18.3772 1.01305 18.4944 1.02244C18.7746 1.04484 19.3321 1.09073 19.7528 1.12598C19.9379 1.14151 20.2436 1.16699 20.4321 1.18256C21.0329 1.23221 21.4732 1.26871 21.8222 1.29778C22.0094 1.31335 22.3176 1.33895 22.5074 1.35474C22.6976 1.37048 22.977 1.39384 23.1282 1.40655C23.2797 1.41927 23.6168 1.44742 23.8779 1.46914L24.3522 1.50854L24.7037 1.69032C24.8969 1.79032 25.3126 2.00484 25.6276 2.16703C25.9426 2.32927 26.4029 2.5662 26.65 2.69353C26.8971 2.82086 27.6125 3.18905 28.2395 3.51175C28.8666 3.8344 29.3901 4.10931 29.4033 4.12258C29.4165 4.13591 29.5812 4.36306 29.7693 4.62741C29.9578 4.89176 30.2686 5.32691 30.46 5.59442C30.6511 5.86188 30.9848 6.32791 31.2009 6.63002C31.417 6.93212 31.6404 7.24409 31.6972 7.32324L31.8004 7.46714L31.9439 7.49729C32.0225 7.51385 32.1057 7.53072 32.1286 7.53483C32.1702 7.54214 32.228 7.58919 32.6822 7.98546C32.7379 8.03394 33.0537 8.3072 33.3845 8.59262C33.7148 8.87807 34.0332 9.1535 34.0922 9.20462C34.2413 9.33446 34.4158 9.48553 34.9906 9.9827C35.658 10.5594 36.0304 10.8819 36.2155 11.0434L36.3688 11.177L36.4482 11.4096C36.5327 11.6573 36.8723 12.6426 37.108 13.3245C37.2353 13.6919 37.8098 15.3565 37.9792 15.8478C38.1231 16.2656 38.4806 17.3022 38.647 17.7852L38.8241 18.2978L38.709 18.735C38.6458 18.9754 38.5596 19.3034 38.5175 19.4639C38.4369 19.773 38.4364 19.7744 38.3146 20.2363C38.0182 21.3605 37.9677 21.5571 37.9677 21.5783C37.9677 21.5914 38.0136 21.7943 38.07 22.0293C38.1265 22.2642 38.194 22.5465 38.2203 22.6566C38.2467 22.7668 38.3745 23.2998 38.5039 23.8411L38.7396 24.8252L38.7133 25.1856C38.6988 25.3839 38.6742 25.7264 38.6585 25.9466C38.6177 26.5236 38.5876 26.9373 38.5642 27.2512L38.5439 27.5259L38.4313 27.7662C38.3694 27.8983 38.2428 28.1687 38.1499 28.3669C38.0573 28.5652 37.9223 28.8536 37.8497 29.0078C37.7775 29.162 37.6714 29.3885 37.6141 29.5113C37.5567 29.634 37.4773 29.8039 37.4374 29.8889C37.3975 29.9739 37.3075 30.1658 37.2375 30.3155C37.1678 30.4651 37.1071 30.5841 37.1071 30.5841C37.1071 30.5841 37.0298 30.4083 36.9394 30.1976C36.849 29.9869 36.7152 29.6755 36.6422 29.5055C36.5692 29.3356 36.3722 28.8773 36.2036 28.4871C36.0355 28.0969 35.8822 27.7408 35.8627 27.6959L35.8275 27.6141L35.0543 26.914C34.6289 26.529 34.2752 26.2163 34.268 26.2191C34.2608 26.2219 34.0833 26.4739 33.8732 26.779L33.4915 27.3337L32.6729 27.5727C32.2229 27.7042 31.8488 27.8154 31.842 27.8198C31.8348 27.8242 31.8314 27.8301 31.8344 27.8328C31.8374 27.8355 31.9838 27.9455 32.16 28.0772C32.5192 28.346 33.1471 28.8168 33.2329 28.8818C33.2906 28.9258 33.4562 29.0502 33.888 29.3744C34.026 29.478 34.2536 29.6492 34.3937 29.7548C34.5334 29.8604 34.696 29.9825 34.755 30.0261C34.8993 30.1335 36.2198 31.1286 36.7598 31.5372C38.8852 33.1445 39.6176 33.7075 39.6855 33.7863C39.7186 33.8249 39.7199 33.83 39.7199 33.9344V34.0425L39.8634 34.2052C39.942 34.2946 40.0948 34.4688 40.2031 34.5923C40.392 34.8081 40.713 35.1737 41.1634 35.685C41.2798 35.8172 41.6054 36.1878 41.8869 36.5085C42.1688 36.8293 42.4423 37.1406 42.4945 37.2002C42.5471 37.2598 42.638 37.3634 42.697 37.4303C42.7556 37.4971 42.973 37.7443 43.1797 37.9793C43.3869 38.2146 43.6561 38.5208 43.778 38.6597L44 38.9122V41.8213V44.7304L43.8213 45.2541C43.2608 46.8955 42.9827 47.7117 42.8575 48.0784C42.7802 48.3051 42.6949 48.5546 42.6685 48.6333C42.6418 48.7121 42.5824 48.8872 42.5361 49.0226C42.4083 49.3963 42.0241 50.5225 41.667 51.5688C41.4912 52.0848 41.3074 52.6228 41.259 52.7647C41.2101 52.9061 41.1507 53.0813 41.1261 53.1535C41.0548 53.3646 40.8892 53.8498 40.8573 53.9411C40.8399 53.9917 40.8255 54.019 40.8208 54.0099C40.8166 54.0017 40.6977 53.7127 40.5559 53.368C40.4145 53.0233 40.2965 52.7418 40.2931 52.7422C40.2897 52.7422 40.2736 52.772 40.257 52.8079C40.2404 52.8438 40.0778 53.1821 39.8961 53.5596C39.7144 53.9372 39.4639 54.4575 39.3399 54.7157L39.1141 55.1846L38.6895 55.5492C38.2293 55.9445 38.079 56.0734 37.5071 56.5634C37.2999 56.7407 37.0748 56.9336 37.0069 56.992C36.939 57.0508 36.6384 57.3086 36.3386 57.5651C36.0389 57.822 35.6423 58.162 35.4568 58.3211C34.1322 59.4578 34.0366 59.5391 34.0307 59.5391C34.0273 59.5391 34.0247 59.3743 34.0247 59.1727C34.0247 58.9716 34.0192 58.8068 34.0192 58.8068C34.0192 58.8068 33.8681 58.9141 33.6902 59.0452C33.5119 59.1766 33.3539 59.2921 33.3386 59.3021C33.3238 59.312 33.2155 59.3414 33.0979 59.3674C32.9807 59.3933 32.8542 59.4219 32.8173 59.431C32.7799 59.44 32.3477 59.5378 31.8565 59.6481C31.3652 59.7584 30.9105 59.8609 30.8456 59.876C30.7806 59.8911 30.4473 59.9664 30.1043 60.0434C29.6084 60.1545 29.4738 60.1883 29.447 60.2095C29.4283 60.2237 29.1808 60.4322 28.8968 60.6723C28.6123 60.9123 28.2281 61.2367 28.043 61.3928C27.8574 61.549 27.6095 61.7583 27.4915 61.8582C26.6126 62.6004 26.2492 62.9053 26.2462 62.9018C26.2369 62.8906 25.6301 62.0027 25.6216 61.988C25.6132 61.9728 25.6102 61.9728 25.5962 61.988C25.5813 62.0035 25.3465 62.3724 24.5908 63.567C24.4456 63.7967 24.3212 63.9909 24.3144 63.9987C24.3055 64.0086 24.2766 63.9632 24.2019 63.8209ZM24.536 62.6198C24.6337 62.4641 24.7644 62.257 24.8269 62.1597C24.8888 62.0619 25.0523 61.8046 25.1894 61.5874C25.327 61.3703 25.8339 60.5706 26.3167 59.8103L27.1943 58.4275L27.2452 57.9678C27.2737 57.7148 27.3191 57.3043 27.3467 57.0556C27.3739 56.8073 27.4269 56.3281 27.4643 55.9916C27.5016 55.6547 27.5394 55.3122 27.5483 55.2304C27.5573 55.1487 27.5929 54.8295 27.6273 54.5211C27.6974 53.8879 27.7521 53.3944 27.8736 52.2954C27.9198 51.8767 27.9708 51.4183 27.9865 51.2768C28.0022 51.1354 28.0251 50.9291 28.037 50.8192C28.0493 50.7089 28.0871 50.3664 28.1215 50.058C28.1555 49.7496 28.1992 49.3582 28.2179 49.1882C28.237 49.0183 28.2506 48.8665 28.248 48.8509C28.2459 48.8349 28.0188 48.5105 27.7437 48.1299C27.469 47.7489 26.8903 46.9483 26.458 46.3506C26.0258 45.7524 25.3741 44.8502 25.0094 44.3454C24.6451 43.8403 24.3424 43.4285 24.3365 43.4307C24.331 43.4324 24.2146 43.6032 24.0783 43.8104C23.6003 44.5375 22.862 45.6585 22.4094 46.3445C21.8808 47.1464 21.4163 47.8514 21.038 48.4275L20.7709 48.8336L20.7867 48.9482C20.7951 49.0109 20.838 49.3431 20.8818 49.6861C20.9794 50.4525 21.0367 50.9018 21.0885 51.3054C21.1514 51.798 21.1611 51.8741 21.1972 52.1522C21.2159 52.2971 21.2409 52.4935 21.2528 52.5886C21.2647 52.6842 21.3021 52.9779 21.336 53.2413C21.4002 53.7395 21.4044 53.772 21.477 54.3438C21.519 54.6742 21.5517 54.9277 21.6005 55.3048C21.6124 55.3961 21.6375 55.592 21.6562 55.7399C21.6749 55.8878 21.7084 56.1478 21.73 56.3177C21.8642 57.3657 21.8977 57.6283 21.9648 58.1602C21.981 58.2861 21.9967 58.402 22.0001 58.4176C22.0035 58.4331 22.1308 58.6831 22.2824 58.9725C22.5834 59.5464 23.1248 60.5771 23.2016 60.7233C23.2284 60.7739 23.3404 60.9876 23.4508 61.1982C24.1785 62.587 24.3458 62.9036 24.3518 62.9031C24.3552 62.9031 24.4384 62.7755 24.536 62.6198ZM26.7247 61.7765C26.9183 61.613 27.1802 61.392 27.3072 61.2851C27.4337 61.1779 27.6256 61.0161 27.7339 60.9248C27.933 60.7566 28.1262 60.5935 28.4162 60.3492C28.6302 60.1688 28.8547 59.9794 29.0934 59.7783C29.2012 59.6874 29.3732 59.5425 29.475 59.4565C29.5769 59.3708 29.8304 59.1572 30.0376 58.982C30.2452 58.8068 30.4605 58.6256 30.5157 58.5793L30.6167 58.4946L30.9776 57.332C31.1759 56.6923 31.42 55.9064 31.5198 55.5855C31.6195 55.2641 31.8098 54.6513 31.9427 54.2235C32.174 53.4783 32.2653 53.1846 32.5035 52.4182C32.5625 52.2279 32.7222 51.715 32.8572 51.2786L33.1034 50.4849L32.7523 50.0031C31.738 48.61 31.0557 47.6732 30.7505 47.2545C30.6082 47.0594 30.4537 46.8471 30.4074 46.7826C30.3611 46.7186 30.3191 46.6659 30.314 46.6654C30.3089 46.6654 30.0945 46.8696 29.8372 47.12C29.5803 47.37 29.2084 47.732 29.011 47.924C28.8136 48.1156 28.6378 48.2847 28.62 48.2994C28.6021 48.3141 28.5877 48.3314 28.5877 48.3379C28.5877 48.3449 28.6412 48.4244 28.707 48.5153L28.8263 48.6809L28.786 49.049C28.7333 49.5282 28.6174 50.5744 28.5822 50.8876C28.5673 51.023 28.5367 51.2959 28.5151 51.4944C28.4934 51.6925 28.4557 52.035 28.431 52.2552C28.4064 52.4753 28.3788 52.7253 28.3695 52.8101C28.3385 53.0908 28.2523 53.8715 28.189 54.4411C28.1347 54.9294 28.0502 55.6949 27.998 56.169C27.9886 56.2507 27.964 56.4747 27.9423 56.6668C27.885 57.1806 27.8056 57.8994 27.7674 58.2515C27.7487 58.4215 27.7296 58.5785 27.7245 58.6005C27.7195 58.6226 27.4978 58.9833 27.232 59.4015C26.9663 59.8202 26.5858 60.4201 26.3867 60.735C26.1872 61.0494 26.0025 61.3405 25.9762 61.3816L25.9282 61.456L25.9749 61.5243C26.2729 61.9607 26.3566 62.0801 26.3642 62.077C26.3689 62.0753 26.5311 61.9399 26.7247 61.7765ZM22.6127 61.9966C22.6289 61.9698 22.7108 61.8318 22.7949 61.6899L22.9486 61.4322L22.5822 60.7345C21.7547 59.1572 21.7317 59.1135 21.4817 58.6351C21.4736 58.6191 21.4515 58.4829 21.4324 58.3319C21.4137 58.1806 21.3806 57.918 21.3585 57.7481C21.3369 57.5781 21.3012 57.3 21.2796 57.13C21.2579 56.96 21.2176 56.646 21.1904 56.4319C21.1628 56.2183 21.1331 55.9838 21.1238 55.9116C21.1144 55.839 21.0766 55.5431 21.0393 55.2533C21.0023 54.964 20.9641 54.6651 20.9544 54.5899C20.8813 54.0164 20.8431 53.7175 20.8138 53.4852C20.7951 53.3373 20.7726 53.1626 20.7637 53.0964C20.7548 53.0302 20.7348 52.8758 20.7191 52.753C20.7034 52.6302 20.6682 52.3521 20.6406 52.1349C20.6126 51.9178 20.5799 51.6605 20.5676 51.5627C20.5323 51.2859 20.402 50.2656 20.3697 50.0182C20.354 49.8954 20.309 49.5477 20.2699 49.2458L20.1986 48.6965L20.3154 48.5166C20.3795 48.4175 20.4245 48.3397 20.4152 48.3431C20.3999 48.3492 20.3018 48.2575 19.8033 47.7692C19.5788 47.5495 18.7466 46.7433 18.6889 46.6896L18.6362 46.6408L18.4192 46.9379C18.2999 47.1014 18.0754 47.4098 17.9204 47.6226C17.7654 47.8354 17.4903 48.2129 17.309 48.4616C17.1281 48.7103 16.946 48.9599 16.9048 49.0165C16.707 49.2895 15.941 50.3405 15.8977 50.3988L15.8489 50.465L15.9903 50.9196C16.068 51.1696 16.1762 51.5182 16.231 51.6946C16.3257 52.0004 16.5613 52.7591 16.7868 53.4852C17.0475 54.3234 17.1931 54.7919 17.4177 55.5167C17.6716 56.335 17.8457 56.8947 18.08 57.6481C18.1577 57.8981 18.2473 58.1862 18.2783 58.2887L18.3352 58.4742L18.9427 58.9863C19.7065 59.6299 19.884 59.7796 20.129 59.9863C20.2373 60.0776 20.548 60.3401 20.8198 60.5689C21.4226 61.0771 21.5186 61.1584 22.3291 61.8426C22.4607 61.9538 22.572 62.045 22.5762 62.045C22.5805 62.045 22.5966 62.0234 22.6127 61.9966ZM18.3764 59.6533C18.3764 59.6398 18.3097 59.1935 18.3059 59.1827C18.3046 59.1788 18.2099 59.097 18.0957 59.001C17.9815 58.905 17.8817 58.8207 17.8745 58.8138C17.8669 58.8068 17.8096 58.636 17.7471 58.4349C17.3544 57.1715 17.0683 56.2503 16.9778 55.957C16.9205 55.7715 16.8246 55.4627 16.7647 55.2706C16.7048 55.0786 16.5473 54.5713 16.4144 54.1435C16.1461 53.2781 15.9792 52.7409 15.7122 51.8832C15.6133 51.5653 15.4668 51.093 15.3861 50.8335L15.2401 50.3612L15.3657 50.1878C15.4349 50.0926 15.4935 50.0087 15.4961 50.0018C15.4986 49.9949 15.3959 49.9084 15.2677 49.8093C14.8957 49.5221 14.61 49.3016 14.1808 48.9711C13.9604 48.8012 13.6755 48.581 13.5477 48.482C13.4204 48.3829 13.3125 48.302 13.3087 48.3016C13.3045 48.3016 13.2561 48.3747 13.2009 48.4647C13.0599 48.693 12.536 49.5416 12.125 50.2068C11.5264 51.1756 11.4567 51.2894 11.4567 51.2998C11.4567 51.3106 11.5726 51.6107 11.9789 52.6501C12.1131 52.993 12.311 53.5004 12.4192 53.7772C12.5271 54.054 12.7309 54.5769 12.8722 54.9389C13.0136 55.3005 13.2943 56.0189 13.4959 56.5353C13.6972 57.0513 13.8887 57.5413 13.9214 57.6244L13.9804 57.7757L14.0636 57.8367C14.1396 57.8921 14.3056 58.014 14.9391 58.4803C15.0596 58.569 15.2014 58.6732 15.2545 58.7121C15.3615 58.7904 15.2957 58.7675 16.0344 58.9842C16.4399 59.1031 16.7787 59.2026 17.1634 59.3159C17.3209 59.3626 17.5408 59.4271 17.6521 59.4599C17.7633 59.4924 17.9628 59.5516 18.0957 59.591C18.3471 59.6658 18.3764 59.6723 18.3764 59.6533ZM31.7779 59.0919C32.4729 58.9353 33.0525 58.8047 33.0652 58.8012C33.0779 58.7982 33.3938 58.5716 33.7674 58.2973L34.4459 57.7987L34.5087 57.6417C34.5436 57.5556 34.6743 57.2221 34.7996 56.9012C35.2458 55.7576 35.4857 55.1426 35.7039 54.5838C35.8258 54.2724 35.9875 53.8581 36.0635 53.6626C36.1395 53.4675 36.3217 53.0017 36.4681 52.6271C36.6142 52.2526 36.7874 51.8097 36.8519 51.6432C36.9169 51.4762 36.9721 51.3344 36.9746 51.3279C36.9776 51.3214 36.9572 51.2803 36.9301 51.2362C36.8694 51.138 36.5739 50.6601 36.0185 49.7605C35.7854 49.3829 35.4904 48.9054 35.363 48.6991C35.2356 48.4932 35.1273 48.3245 35.1222 48.3245C35.1133 48.3245 34.924 48.4694 33.8243 49.3184C33.5361 49.5407 33.2907 49.7297 33.2788 49.7384C33.2558 49.7548 33.2546 49.7535 33.5785 50.1943L33.7123 50.3759L33.6957 50.4347C33.6863 50.4667 33.5997 50.7479 33.5025 51.0593C33.4057 51.3711 33.2813 51.7699 33.227 51.9464C33.1259 52.2733 32.993 52.7015 32.8058 53.3023C32.5778 54.035 32.4768 54.3606 32.2123 55.2135C32.0607 55.701 31.8705 56.3139 31.7894 56.5751C31.7083 56.8363 31.5181 57.4488 31.3665 57.9362C31.2154 58.4236 31.0846 58.8276 31.0765 58.8345C30.9946 58.9011 30.5038 59.3176 30.4694 59.3496L30.4244 59.3916L30.4694 59.3842C30.494 59.3803 31.0829 59.2489 31.7779 59.0919ZM13.2913 57.7225C13.1771 57.4219 12.9835 56.9107 12.8612 56.5868C12.7385 56.2624 12.5644 55.8022 12.474 55.5634L12.3093 55.1301L12.1662 54.9514C12.0872 54.8533 11.4003 53.9891 10.6394 53.0315L9.25576 51.2902L8.94073 50.2449C8.7675 49.6701 8.62103 49.1895 8.61551 49.177C8.60277 49.1467 8.60872 49.126 8.50809 49.549C8.427 49.8906 8.35822 50.1761 8.07418 51.3547C8.0071 51.6337 7.9519 51.8685 7.9519 51.8763C7.9519 51.8845 8.11409 52.2279 8.31279 52.6397C8.51106 53.0514 8.71529 53.4757 8.76623 53.5825C8.81761 53.6898 8.95771 53.9809 9.07786 54.2296L9.2961 54.682L9.40861 54.7789C9.4706 54.8321 9.72236 55.0483 9.96861 55.259C10.2144 55.47 10.5329 55.7429 10.6764 55.8658C10.8195 55.9882 11.1048 56.233 11.3107 56.409C11.5162 56.5855 11.8346 56.8584 12.0176 57.0158C12.201 57.1732 12.5525 57.4743 12.7988 57.6853C13.0455 57.896 13.2977 58.1131 13.3601 58.168C13.4221 58.2225 13.479 58.2675 13.4857 58.2679C13.493 58.2684 13.4055 58.0227 13.2913 57.7225ZM35.2161 57.7939C35.3409 57.6871 35.608 57.4578 35.8096 57.2848C36.0109 57.1123 36.3225 56.845 36.5017 56.6919C36.6808 56.5383 36.9309 56.3238 37.0579 56.2152C37.2689 56.034 37.797 55.5816 38.425 55.0436L38.6742 54.8299L38.7247 54.7214C38.7523 54.6617 38.8771 54.4013 39.0015 54.1435C39.1264 53.8853 39.275 53.5765 39.3323 53.4567C39.3892 53.3373 39.5679 52.9654 39.7297 52.6302L40.0235 52.0208L39.9895 51.7946C39.9708 51.6704 39.9377 51.4477 39.9161 51.2998C39.8944 51.1518 39.8587 50.9122 39.8371 50.7678C39.8154 50.6229 39.7802 50.3859 39.7585 50.241C39.7369 50.0965 39.7021 49.8621 39.6809 49.7207C39.6601 49.5788 39.6405 49.4503 39.6384 49.4343L39.6342 49.4058L39.6201 49.44C39.6125 49.459 39.4834 49.8785 39.334 50.3729L39.0618 51.2712L38.906 51.4771C38.6767 51.7794 38.4827 52.0355 38.1473 52.4784C37.9826 52.6955 37.5988 53.2028 37.2939 53.6055C36.6448 54.4631 36.4779 54.6833 36.2168 55.0271L36.0236 55.2819L35.8058 55.8398C35.5332 56.5396 35.2547 57.2528 35.093 57.6663C35.0242 57.8419 34.9681 57.9907 34.9681 57.9907C34.9681 58.0041 35.0025 57.9769 35.2161 57.7939ZM11.5964 53.25C11.5684 53.1747 11.531 53.0748 11.5136 53.0276C11.4962 52.9805 11.382 52.679 11.2602 52.3581C11.0186 51.7228 10.9702 51.5947 10.8903 51.3819L10.8373 51.2414L10.8585 51.2046C10.8776 51.1717 11.0143 50.9503 11.6431 49.9322C11.9853 49.3781 12.1857 49.0537 12.6651 48.2787C12.8519 47.9764 12.896 47.8968 12.9372 47.7865C12.9644 47.7143 13.355 46.6542 13.8059 45.431L14.6257 43.2071L14.5574 42.8446C14.52 42.6457 14.4797 42.4311 14.4678 42.368C14.4559 42.3053 14.4274 42.153 14.4045 42.0306C14.382 41.9078 14.3612 41.8049 14.3612 41.8049C14.3612 41.8049 14.2912 41.8226 14.2084 41.8481C14.1251 41.8732 14.0067 41.9091 13.9451 41.9273C13.8831 41.9459 13.7469 41.9865 13.6416 42.0181C13.5367 42.0497 13.1652 42.1608 12.8158 42.2651C12.4668 42.3693 12.08 42.4852 11.9565 42.5224C11.8329 42.5596 11.6686 42.6089 11.5917 42.6318C11.3081 42.7162 11.2334 42.7382 11.0241 42.8009C10.9069 42.8364 10.5456 42.9445 10.2212 43.0414C9.89686 43.1387 9.46337 43.2685 9.25788 43.3299L8.88426 43.4424V45.7987V48.1554L9.12669 48.9582C9.26 49.3993 9.41879 49.9252 9.47951 50.1268C9.54064 50.3283 9.62598 50.6108 9.66929 50.7544C9.71302 50.8984 9.75293 51.0221 9.75888 51.029C9.7869 51.0649 11.3701 53.0579 11.4949 53.2145C11.5739 53.314 11.641 53.3931 11.6435 53.3905C11.6435 53.3905 11.6249 53.3248 11.5964 53.25ZM36.9572 53.1306C37.0455 53.0142 37.1916 52.8209 37.2825 52.7015C37.3729 52.5822 37.6285 52.2448 37.8497 51.952C38.0713 51.6592 38.3035 51.353 38.3655 51.2712C38.5506 51.0273 38.571 50.9983 38.5833 50.9563C38.5897 50.9343 38.6458 50.7492 38.7077 50.5446C38.7693 50.34 38.9591 49.7107 39.1298 49.1463L39.4393 48.1204L39.4363 45.771L39.4333 43.4216L39.3493 43.3969C39.303 43.3831 39.1663 43.3424 39.0461 43.3065C38.9255 43.2702 38.7587 43.2205 38.6755 43.1958C38.5358 43.1543 38.391 43.1111 37.8777 42.9566C37.7758 42.9259 37.4926 42.8412 37.2485 42.7685C36.6452 42.5886 36.4074 42.5172 36.2151 42.4588C36.1255 42.432 35.9714 42.3857 35.8725 42.3563C35.6997 42.3049 35.6313 42.2845 35.4118 42.2188C35.3562 42.2023 35.2449 42.169 35.1647 42.1453C34.7894 42.0332 34.2625 41.8758 34.1228 41.8334C34.0379 41.8075 33.9649 41.7897 33.961 41.7941C33.9521 41.8031 33.6999 43.1344 33.6991 43.1751C33.6987 43.1906 33.7691 43.3943 33.8549 43.627C33.9407 43.8597 34.2999 44.8346 34.6531 45.7931L35.2955 47.5361L35.622 48.0646C36.1102 48.8543 36.5378 49.5468 36.8498 50.0524C37.215 50.6441 37.524 51.1441 37.5635 51.2072L37.5949 51.2578L37.5746 51.3101C37.4298 51.6804 37.0969 52.5337 36.9602 52.884C36.8647 53.1288 36.784 53.3343 36.7802 53.3403C36.7768 53.3464 36.7789 53.349 36.7853 53.3468C36.7921 53.3442 36.8693 53.2469 36.9572 53.1306ZM7.24414 52.2353C7.35113 52.0636 7.44284 51.9105 7.44794 51.8949C7.45303 51.8789 7.47044 51.7452 7.48615 51.5973C7.51248 51.3534 7.52351 51.2928 7.60546 50.9507C7.7099 50.5165 7.81943 50.0615 8.1196 48.8141L8.33402 47.9253V45.8207V43.7166L8.46904 43.4008L8.60404 43.0847L8.56456 42.3087C8.54249 41.8819 8.51489 41.3317 8.50257 41.0865C8.49026 40.8408 8.47498 40.5424 8.46861 40.4226C8.45545 40.1747 8.43337 39.7418 8.4011 39.0952C8.38921 38.85 8.37138 38.5048 8.36204 38.3284C8.3527 38.1523 8.33232 37.7532 8.31661 37.4416C8.30132 37.1301 8.2784 36.6846 8.26651 36.4518C8.25463 36.2189 8.24146 35.9614 8.23764 35.8796C8.20325 35.179 8.18117 34.7857 8.17607 34.7835C8.17056 34.7813 7.86826 35.1215 6.85227 36.2744C6.68838 36.46 6.51347 36.6583 6.46294 36.715C6.41242 36.7716 6.29651 36.9029 6.20523 37.0068C6.11394 37.1106 6.01841 37.2188 5.99294 37.2471C5.96746 37.2754 5.85836 37.399 5.75051 37.5217C5.6431 37.6445 5.52677 37.7758 5.49237 37.8135C5.45799 37.8513 5.23551 38.1035 4.99733 38.3738C4.75957 38.6445 4.52096 38.9148 4.46704 38.9745L4.36896 39.084L4.36854 41.8447L4.36811 44.6054L4.44581 44.8372C4.48869 44.9644 4.59313 45.2749 4.67762 45.5266C4.98374 46.4383 5.10304 46.7934 5.24994 47.2316C5.45416 47.8397 5.82991 48.9581 5.89572 49.1541C5.95516 49.3292 6.18187 50.0035 6.41283 50.6934C6.89642 52.1336 7.03653 52.5471 7.0429 52.5471C7.04672 52.5471 7.13715 52.4066 7.24414 52.2353ZM40.7966 52.4126C40.803 52.3953 40.9355 52.0078 41.0909 51.5515C41.4157 50.5987 41.8092 49.4439 41.875 49.2514C41.9001 49.1787 41.9791 48.9473 42.0508 48.7363C42.1226 48.5256 42.2037 48.2886 42.2304 48.2099C42.2576 48.1312 42.3438 47.879 42.4219 47.6494C42.5 47.4193 42.6019 47.1209 42.6482 46.9855C42.6944 46.8501 42.7747 46.6157 42.8261 46.4647C42.8774 46.3138 42.9607 46.069 43.0112 45.9211C43.0617 45.7732 43.1479 45.521 43.2022 45.3605C43.257 45.2001 43.3347 44.9713 43.3755 44.8523L43.4493 44.6361V41.8819V39.1272L43.1836 38.8253C42.7178 38.2955 41.9043 37.3704 41.5851 37.0061C41.4832 36.89 41.2709 36.6483 41.1129 36.469C40.7826 36.0939 39.8948 35.084 39.7543 34.9236C39.7021 34.864 39.6562 34.8139 39.652 34.8121C39.6482 34.8103 39.6414 34.8747 39.6371 34.9551C39.6329 35.0356 39.6146 35.3435 39.5964 35.6393C39.5641 36.1713 39.5323 36.691 39.4783 37.5904C39.463 37.8453 39.4401 38.2185 39.4278 38.4201C39.4159 38.6216 39.393 39 39.3773 39.2613C39.3616 39.5225 39.3391 39.8984 39.3268 40.0965C39.2941 40.6349 39.2949 40.6172 39.2648 41.115C39.2495 41.3698 39.2244 41.7845 39.2092 42.0363C39.1939 42.288 39.1782 42.5535 39.1743 42.6262L39.1667 42.7586L39.306 42.8005C39.3824 42.8234 39.5586 42.8766 39.6974 42.9181C39.8367 42.9601 39.9589 42.9969 39.97 43.0003C39.9887 43.0055 39.9895 43.1361 39.9895 45.5348V48.0637L40.0574 48.5174C40.0944 48.767 40.1373 49.0533 40.1521 49.1541C40.1674 49.2549 40.2005 49.4763 40.2256 49.6463C40.251 49.8162 40.2965 50.1199 40.3262 50.3214C40.3563 50.5225 40.4226 50.968 40.4735 51.311L40.5657 51.9347L40.668 52.189C40.7245 52.3291 40.7737 52.4438 40.7775 52.4438C40.7813 52.4438 40.7898 52.4299 40.7966 52.4126ZM15.989 49.3336C16.0693 49.2224 16.214 49.023 16.31 48.8907C16.4064 48.7588 16.684 48.3777 16.9269 48.0438C17.4096 47.3812 17.6194 47.0936 17.8766 46.7411C18.2036 46.293 18.4617 45.9375 18.5114 45.8674C18.5394 45.8281 18.5653 45.7974 18.5691 45.7987C18.5759 45.8008 19.3147 46.5158 19.6123 46.8081C19.6896 46.8838 19.9596 47.1468 20.2131 47.392C20.4661 47.6373 20.6852 47.8501 20.7 47.8643C20.7149 47.879 20.7293 47.8873 20.7293 47.8873C20.7293 47.8873 20.9085 47.6161 21.1242 47.2887C21.3394 46.9613 21.6634 46.4695 21.8438 46.1957C22.0243 45.9219 22.321 45.4717 22.5032 45.1945C22.6853 44.9176 22.9872 44.4592 23.1736 44.1763C23.8554 43.1413 23.937 43.0168 23.9433 42.9999C23.9505 42.9804 23.9242 42.964 23.6508 42.82C23.5519 42.7681 23.2432 42.6042 22.9655 42.4567C22.6874 42.3087 22.4043 42.1582 22.3363 42.1223C22.2684 42.086 22.0939 41.9934 21.9487 41.916C21.8035 41.839 21.5683 41.714 21.4265 41.6384C21.2842 41.5631 21.0567 41.442 20.9208 41.3698C20.785 41.2971 20.613 41.2059 20.5391 41.1665C20.4648 41.1271 20.2929 41.0359 20.157 40.9636C20.0211 40.891 19.791 40.7686 19.6458 40.6916C19.5006 40.6146 19.3261 40.5216 19.2582 40.4857C19.1903 40.4494 18.8468 40.2664 18.4944 40.0792C18.1424 39.8923 17.6266 39.6181 17.3485 39.4702C17.0708 39.3223 16.7749 39.1648 16.6917 39.1207C16.608 39.0766 16.4412 38.9879 16.3206 38.9235C16.2004 38.859 16.0158 38.7613 15.9109 38.7064C15.8056 38.651 15.6944 38.5918 15.6638 38.5745C15.6328 38.5572 15.5267 38.5005 15.4277 38.4486C15.3288 38.3967 15.2027 38.3297 15.1471 38.2998C15.0915 38.27 14.9802 38.2107 14.8996 38.1683C14.6928 38.0585 14.534 37.9737 14.4168 37.9106C14.3612 37.8807 14.2347 37.8139 14.1358 37.7619C14.0368 37.71 13.9158 37.6457 13.8662 37.619C13.8169 37.5923 13.7133 37.5369 13.636 37.496C13.425 37.3842 12.9983 37.1576 12.7207 37.0095C12.5844 36.9371 12.4129 36.8457 12.3386 36.8064C12.0401 36.648 11.2024 36.2026 9.79412 35.4536C8.90592 34.981 8.75392 34.9012 8.74458 34.9012C8.74033 34.9012 8.73949 34.9514 8.7433 35.0127C8.74713 35.0741 8.75986 35.3226 8.77218 35.5649C8.7951 36.0245 8.83543 36.8235 8.87322 37.5561C8.88511 37.7921 8.90039 38.0935 8.90676 38.2254C8.91313 38.3578 8.92587 38.6047 8.93479 38.7747C8.9437 38.9447 8.95644 39.1921 8.96281 39.324C8.96918 39.4563 8.98446 39.7574 8.99677 39.9935C9.00866 40.2297 9.03159 40.6752 9.0473 40.9835C9.06301 41.2919 9.0855 41.7374 9.0974 41.9731C9.1097 42.2093 9.12244 42.4744 9.12626 42.5626C9.13009 42.6509 9.13476 42.7287 9.1373 42.7361C9.14113 42.7495 9.27444 42.7114 11.0581 42.1863C11.2185 42.1392 11.5773 42.0337 11.8554 41.9524C12.643 41.7214 13.4081 41.4969 13.636 41.4299C13.7503 41.3961 13.9957 41.3239 14.1808 41.2694C14.3663 41.2149 14.5782 41.1526 14.6516 41.131C14.7251 41.1094 14.7875 41.0947 14.7875 41.0947C14.7875 41.0947 14.8359 41.3451 14.8928 41.647C14.9492 41.9493 15.0405 42.4355 15.0953 42.7278L15.1946 43.2594L14.6694 44.6845C14.3803 45.4687 14.0063 46.4829 13.8386 46.9383C13.6704 47.3938 13.5375 47.7701 13.5426 47.7748C13.5477 47.7791 13.6653 47.8704 13.8046 47.9777C13.9434 48.0845 14.1659 48.2558 14.2988 48.3583C14.4317 48.4608 14.6465 48.6264 14.776 48.7259C14.9059 48.8258 15.1942 49.049 15.4167 49.2215C15.6387 49.3941 15.826 49.5356 15.8323 49.536C15.8383 49.536 15.9092 49.4452 15.989 49.3336ZM33.5148 48.8535C34.5576 48.0486 34.7962 47.8648 34.8093 47.8561C34.8187 47.8505 34.5669 47.155 33.9734 45.5435L33.1242 43.2391L33.1586 43.0553C33.2928 42.339 33.5208 41.1267 33.5254 41.1016C33.531 41.0739 33.5348 41.0718 33.562 41.0808C33.5785 41.0865 33.6982 41.1224 33.8282 41.1613C33.9577 41.1998 34.1474 41.2569 34.2493 41.2876C34.3512 41.3183 34.8645 41.4718 35.3893 41.6288C35.9145 41.7858 36.7059 42.0224 37.1474 42.1548C38.3511 42.5151 38.6075 42.5912 38.6173 42.5912C38.622 42.5912 38.6373 42.3996 38.6513 42.1647C38.6653 41.9303 38.6891 41.538 38.7039 41.2924C38.7413 40.6799 38.7702 40.2029 38.8101 39.5359C38.8287 39.2241 38.8568 38.7609 38.8725 38.5057C38.8878 38.2509 38.9128 37.8339 38.9281 37.5789C38.9438 37.3241 38.9663 36.9507 38.9786 36.7493C38.9909 36.5479 39.0134 36.172 39.0287 35.9139C39.044 35.6559 39.0597 35.4023 39.0631 35.3503C39.0665 35.2984 39.0669 35.2559 39.0635 35.2559C39.0572 35.2559 38.9442 35.3156 37.9172 35.8623C36.7059 36.507 36.1531 36.801 33.0979 38.4257C32.616 38.6821 31.9363 39.0437 31.5873 39.2297C31.2379 39.4153 30.8337 39.6302 30.6885 39.7076C30.5433 39.7846 30.2575 39.9364 30.0537 40.045C29.8499 40.1535 29.3948 40.3958 29.0428 40.583C28.6904 40.7703 28.2357 41.0121 28.0319 41.1206C27.8277 41.2292 27.4312 41.4403 27.1501 41.5899C26.869 41.7396 26.4772 41.948 26.2793 42.0531C26.0815 42.1587 25.7911 42.3131 25.6335 42.3965C24.8969 42.788 24.6834 42.9021 24.6744 42.9117C24.6647 42.9212 24.7241 43.0051 25.4217 43.97C26.0212 44.7991 27.702 47.1252 27.8239 47.2943C28.0413 47.5957 28.2086 47.8263 28.2294 47.8535L28.2502 47.8803L28.2994 47.8362C28.3262 47.812 28.5045 47.6403 28.6955 47.4543C29.1171 47.0434 29.5234 46.6486 29.5723 46.6023C29.5922 46.5832 29.7807 46.4003 29.9913 46.1957C30.2023 45.9911 30.379 45.8242 30.3845 45.8242C30.39 45.8242 30.5959 46.1006 30.8422 46.4379C31.088 46.7757 31.4183 47.229 31.5754 47.4452C31.7329 47.6611 31.9405 47.9461 32.0369 48.0784C32.1333 48.2103 32.3303 48.4811 32.4746 48.6792C32.8983 49.2613 32.9247 49.2972 32.9332 49.2968C32.9374 49.2968 33.1989 49.0974 33.5148 48.8535ZM23.8584 42.288C23.8584 42.288 23.7098 41.9852 23.5285 41.6215C23.3472 41.2577 23.0305 40.6233 22.825 40.2111C22.6195 39.7989 22.369 39.2967 22.2688 39.0952C21.5878 37.7301 21.3917 37.3364 21.3191 37.1899C21.2741 37.0986 21.1123 36.7742 20.9599 36.469C20.8075 36.1637 20.5727 35.6925 20.4381 35.4218C20.3035 35.1512 20.1341 34.8114 20.0615 34.6666C19.9885 34.5218 19.7486 34.0403 19.5278 33.5966C19.307 33.1529 19.0493 32.6354 18.9551 32.4465C18.8608 32.2577 18.7003 31.9359 18.5984 31.7313C18.4965 31.5268 18.3216 31.1766 18.2099 30.9532C18.0983 30.7297 17.8919 30.3152 17.751 30.0319C17.0288 28.5805 16.8984 28.3214 16.8904 28.3213C16.8853 28.3212 16.6174 28.5024 16.2947 28.724C15.7096 29.1261 14.9764 29.6296 14.0262 30.2818C13.7494 30.4717 13.2921 30.7859 13.0094 30.9801C12.727 31.1742 12.291 31.4735 12.0409 31.6452C11.4436 32.055 10.6768 32.5816 9.5831 33.3323L8.6932 33.9435V34.019C8.6932 34.0605 8.6966 34.128 8.70042 34.1691L8.70722 34.2439L8.7985 34.2923C8.8486 34.3189 9.01376 34.4066 9.16491 34.4872C9.31648 34.5678 9.53131 34.6817 9.64254 34.7403C9.75378 34.7989 9.87011 34.861 9.90068 34.8783C9.93167 34.8955 10.0582 34.9626 10.1817 35.0272C10.3053 35.0919 10.4114 35.1484 10.4174 35.1529C10.4238 35.1574 10.5299 35.214 10.6534 35.2788C10.777 35.3436 10.9668 35.444 11.0746 35.502C11.1829 35.5599 11.3472 35.6474 11.4397 35.6964C11.5323 35.7453 11.6486 35.8071 11.6983 35.8338C11.7476 35.8605 11.8588 35.9197 11.9454 35.9654C12.0316 36.0111 12.2112 36.1063 12.3441 36.1771C12.477 36.2479 12.7045 36.3689 12.8497 36.446C12.9949 36.5231 13.169 36.6159 13.2369 36.6522C13.3053 36.6885 13.6539 36.8738 14.0122 37.064C14.3705 37.2542 14.7726 37.4679 14.9055 37.5389C15.1628 37.6764 16.3185 38.2907 16.5902 38.4343C16.6798 38.4815 16.7885 38.5399 16.8318 38.5632C16.8751 38.587 16.9914 38.6484 17.0903 38.7003C17.1893 38.7522 17.3103 38.8167 17.3599 38.8435C17.4092 38.8703 17.5153 38.9269 17.5956 38.9693C17.6758 39.0122 17.7947 39.0753 17.8597 39.1095C18.1284 39.2526 18.232 39.308 18.3708 39.3811C18.4511 39.4239 18.5674 39.4858 18.629 39.5186C18.691 39.5515 18.8009 39.6103 18.8735 39.6488C18.9461 39.6873 19.0625 39.7492 19.1317 39.7863C19.2013 39.8231 19.4352 39.9472 19.6514 40.0623C19.8675 40.1769 20.1001 40.3006 20.1681 40.3365C20.3039 40.4092 20.5497 40.5398 21.314 40.9459C22.8335 41.7538 23.2199 41.9593 23.5158 42.118C23.83 42.2863 23.8584 42.3001 23.8584 42.288ZM25.2175 41.9848C25.3877 41.8948 25.6327 41.7646 25.7626 41.6954C25.8921 41.6262 26.0539 41.5402 26.1218 41.5038C26.1897 41.4679 26.3566 41.3789 26.4924 41.3066C26.6287 41.234 26.9217 41.0783 27.1442 40.9602C27.3666 40.8425 27.6473 40.6933 27.7678 40.6289C27.888 40.5644 28.1156 40.4433 28.2731 40.3599C28.4306 40.2759 28.6582 40.1553 28.7788 40.0908C28.8993 40.0264 29.0785 39.9312 29.1774 39.8793C29.2763 39.827 29.3927 39.7652 29.436 39.7414C29.4789 39.718 29.6381 39.6328 29.7896 39.5528C29.9412 39.4723 30.2265 39.321 30.4244 39.2154C30.6222 39.1103 30.9126 38.9555 31.0702 38.872C31.3317 38.7332 31.862 38.4512 32.1991 38.2713C32.3184 38.2077 33.1357 37.7731 33.4855 37.5875C33.5564 37.5498 33.6651 37.4918 33.7271 37.4586C33.8693 37.3822 34.5516 37.0199 34.766 36.9067C34.8556 36.8594 34.9643 36.8014 35.0076 36.7777C35.0772 36.7397 35.5986 36.4625 36.024 36.2373C36.1077 36.1932 36.2113 36.1378 36.2546 36.1143C36.2979 36.0907 36.4091 36.0314 36.5017 35.9825C36.5942 35.9336 36.7687 35.8409 36.8893 35.7766C37.0095 35.7123 37.184 35.6196 37.2765 35.5707C37.3695 35.5218 37.4807 35.4625 37.524 35.4388C37.5669 35.4151 37.7312 35.3276 37.8887 35.2443C38.0467 35.1609 38.2157 35.071 38.2653 35.0444C38.3146 35.0179 38.4488 34.9467 38.563 34.8862C38.6772 34.8257 38.8466 34.7354 38.9391 34.6855L39.1077 34.5947L39.1208 34.396C39.1281 34.2868 39.1344 34.1639 39.1348 34.123L39.1357 34.0486L39.0712 33.9973C38.9901 33.9328 37.2731 32.6223 37.0171 32.4296C36.9127 32.3511 36.7212 32.2066 36.5917 32.1084C36.3599 31.9332 35.9799 31.6468 35.5804 31.3457C35.4691 31.262 35.3074 31.1401 35.2212 31.0749C35.0267 30.9283 32.3507 28.9171 31.7516 28.4676C31.6705 28.4065 31.5987 28.3563 31.5928 28.3561C31.5864 28.3558 31.2086 29.1138 30.7534 30.0406C30.2979 30.9673 29.3005 32.995 28.5367 34.5464C25.1903 41.3447 24.7683 42.2036 24.7683 42.2136C24.7683 42.2197 24.8001 42.2071 24.8383 42.1863C24.8769 42.1651 25.0476 42.0743 25.2175 41.9848ZM25.5236 39.4183C26.1952 38.0511 27.266 35.8742 27.9029 34.5807C29.4483 31.4427 31.1266 28.0268 31.1266 28.0187C31.1266 28.0151 28.0298 28.0122 24.2452 28.0122C20.4602 28.0122 17.3655 28.0161 17.3676 28.0208C17.3846 28.0582 17.7064 28.7061 17.7527 28.7961C17.7854 28.859 17.9293 29.1474 18.0732 29.4369C18.2172 29.7264 18.4825 30.2594 18.663 30.6213C18.8434 30.9832 19.1062 31.511 19.2467 31.7943C19.3877 32.0775 19.5418 32.3865 19.5898 32.4809C19.6378 32.5753 19.7995 32.8997 19.9494 33.2018C20.0988 33.5039 20.2708 33.8489 20.3311 33.9685C20.3914 34.0881 20.548 34.4022 20.6792 34.6666C20.9187 35.1481 21.1259 35.5636 21.404 36.1199C21.4859 36.2835 21.6651 36.644 21.8026 36.921C21.9402 37.1979 22.0969 37.512 22.1508 37.619C22.2051 37.726 22.3618 38.0403 22.4994 38.3171C22.6369 38.5939 22.8972 39.1168 23.0776 39.4784C23.2581 39.8404 23.526 40.3785 23.6729 40.6743C23.8198 40.9701 23.9667 41.2638 23.9989 41.3265C24.0316 41.3897 24.1093 41.5454 24.1717 41.673C24.2342 41.8001 24.2893 41.9048 24.2936 41.9048C24.2983 41.9048 24.8519 40.7859 25.5236 39.4183ZM4.52096 38.074C4.78632 37.7738 5.13956 37.3737 5.30642 37.185C5.47327 36.9963 5.65456 36.7905 5.70933 36.7278C5.76367 36.665 5.83033 36.5901 5.85623 36.5613C5.88255 36.5325 6.13135 36.2515 6.40902 35.9368C6.68669 35.6221 7.14098 35.1071 7.41823 34.7925C7.69589 34.4778 8.0572 34.0688 8.22108 33.8837C8.38496 33.6985 8.5497 33.5113 8.58664 33.4676C8.64098 33.4036 8.70085 33.3557 8.89572 33.2215C10.256 32.2826 10.8394 31.875 12.7147 30.5528C14.3599 29.3931 14.661 29.1822 15.5046 28.5958L15.9737 28.2697L15.9198 28.2657C15.8667 28.2617 14.9858 28.277 14.0237 28.2985C13.7515 28.3046 13.2514 28.3146 12.9113 28.3208C12.5717 28.327 12.1721 28.3349 12.024 28.3384C11.5276 28.3499 10.704 28.3669 10.0977 28.3782C9.39969 28.3912 9.06725 28.3981 8.42361 28.4132C8.16717 28.4192 7.90648 28.4241 7.84406 28.4241H7.73028L7.63518 28.5643C7.58295 28.6414 7.51757 28.738 7.48955 28.7789C7.46153 28.8198 7.22717 29.1648 6.9686 29.5456C5.58026 31.5908 4.2849 33.499 4.11931 33.7427C4.03695 33.8639 3.92147 34.0338 3.86245 34.1203C3.80344 34.2068 3.71555 34.3367 3.6663 34.4091C3.61748 34.4814 3.55294 34.5767 3.52322 34.6208C3.49308 34.6648 3.41707 34.777 3.35381 34.87C3.29098 34.963 3.14068 35.1844 3.0201 35.3621C2.11152 36.6983 1.79055 37.1739 1.79055 37.1822C1.79055 37.1907 4.01657 38.6181 4.0327 38.6194C4.0361 38.6199 4.25603 38.3746 4.52096 38.074ZM3.60473 33.5159C4.40717 32.3316 4.70692 31.8895 4.8967 31.6112C4.98204 31.4853 5.28476 31.0399 5.56879 30.6213C5.85283 30.2027 6.21669 29.6672 6.37675 29.4312C6.53724 29.1952 6.83401 28.7574 7.03654 28.4585C7.23906 28.1595 7.41355 27.9052 7.42459 27.8934C7.44327 27.8732 7.47554 27.8713 7.92558 27.8628C8.5238 27.8515 8.942 27.8428 9.56951 27.8288C9.83827 27.8228 10.3414 27.8126 10.6874 27.8062C11.0334 27.7997 11.6754 27.7868 12.114 27.7776C12.5525 27.7684 13.1818 27.7556 13.5125 27.7492C14.7251 27.7257 15.2413 27.715 15.4332 27.7094C15.5415 27.7063 15.8447 27.7004 16.1075 27.6964C16.3698 27.6923 16.6237 27.6858 16.6717 27.6818L16.7583 27.6746L16.6254 27.4458C16.5524 27.3199 16.3898 27.0392 16.2646 26.8221C16.1389 26.6049 15.9304 26.2445 15.8009 26.021C15.6714 25.7976 15.4897 25.4835 15.3967 25.323C15.3038 25.1625 15.2002 24.9835 15.1662 24.9253L15.1046 24.8195L11.4245 24.8198L7.74429 24.8202L7.55663 25.0973C7.31293 25.4576 6.15768 27.1596 4.82877 29.1161C4.51629 29.5757 4.01105 30.32 3.70578 30.77C2.9301 31.9129 2.21342 32.9685 1.99052 33.2962C1.8865 33.4489 1.80031 33.5776 1.79904 33.5823C1.79777 33.587 2.00963 33.7402 2.26946 33.9227C2.5293 34.1052 2.79338 34.2916 2.85622 34.3369C2.91863 34.3822 2.9751 34.4192 2.98105 34.4193C2.98741 34.4193 3.26805 34.0128 3.60473 33.5159ZM4.08578 29.2234C4.46279 28.6686 4.86868 28.0704 5.34589 27.3674C5.63927 26.9349 5.92755 26.5104 5.98657 26.424C6.09186 26.2698 6.23028 26.0654 6.29863 25.9638C6.31731 25.9355 6.46421 25.7192 6.6247 25.4832C6.95926 24.9912 7.16051 24.6949 7.33246 24.4418L7.45261 24.2644L11.1128 24.2616C14.5518 24.2589 14.7726 24.2575 14.7658 24.2393C14.7616 24.2285 14.6822 24.0882 14.5888 23.9274C14.1833 23.2288 13.6709 22.3435 13.6208 22.2551L13.591 22.2026V21.0049V19.8072L11.1506 19.8079L8.71019 19.8085L8.39558 20.2738C8.22278 20.5296 7.72774 21.2593 7.29595 21.8952C5.87321 23.9907 4.92982 25.3804 4.6738 25.7578C4.53497 25.9624 4.38637 26.1812 4.34349 26.2442C4.2832 26.3328 3.44637 27.5651 2.83414 28.4667L2.76239 28.5722L2.87193 28.6508C2.93179 28.6941 3.12284 28.8299 3.29564 28.9528C3.46844 29.0756 3.68583 29.2302 3.77881 29.2963C3.87136 29.3623 3.94991 29.4151 3.95289 29.4134C3.95586 29.4117 4.01572 29.3262 4.08578 29.2234ZM37.1474 29.2149C37.1474 29.2041 37.1666 29.163 37.4625 28.5329C37.5627 28.3189 37.6637 28.1026 37.6871 28.0522C37.71 28.0019 37.7677 27.8783 37.8153 27.7776C37.9864 27.415 38.0127 27.3534 38.0127 27.3091C38.0127 27.2853 38.0255 27.0901 38.0407 26.8752C38.0993 26.0706 38.1244 25.7173 38.1537 25.2944L38.1838 24.8595L37.9732 23.9841C37.7278 22.9642 37.7143 22.9078 37.5627 22.2733C37.4994 22.0089 37.4421 21.7889 37.4353 21.7843C37.4285 21.7796 37.3886 21.7758 37.3474 21.7757L37.2718 21.7755L37.2285 21.8356C37.2048 21.8686 37.026 22.13 36.8311 22.4163C36.6367 22.7027 36.2809 23.2254 36.041 23.5778C35.8011 23.9303 35.5383 24.3165 35.4572 24.4361C35.3757 24.5557 35.1605 24.8724 34.9779 25.1399C34.7958 25.4074 34.631 25.6499 34.6115 25.6788L34.5763 25.7314L34.8981 26.0221C35.0747 26.182 35.3108 26.3958 35.4224 26.4972C35.5341 26.5986 35.7718 26.814 35.951 26.9758C36.1302 27.1378 36.283 27.282 36.2907 27.2964C36.2983 27.3108 36.376 27.4894 36.4635 27.6932C36.5509 27.897 36.6435 28.1126 36.6694 28.1724C36.6953 28.2322 36.8069 28.4934 36.9178 28.7528C37.0286 29.0122 37.1258 29.2246 37.1334 29.2248C37.1411 29.225 37.1474 29.2206 37.1474 29.2149ZM31.2277 27.4119C31.2986 27.3904 31.3491 27.3725 31.3398 27.372C31.3304 27.3715 30.666 27.3699 29.8627 27.3684L28.4022 27.3656L27.4923 27.2076C26.6126 27.0547 25.5002 26.8635 24.6392 26.7171L24.2235 26.6464L24.1391 26.5704C23.4827 25.9776 22.535 25.1212 22.2077 24.8248C22.0689 24.6991 21.9092 24.5551 21.8532 24.5048C21.7058 24.3727 21.3441 24.0456 21.2915 23.9968C21.2668 23.974 21.1378 23.8576 21.0053 23.7382C20.8724 23.6188 20.7433 23.5024 20.7187 23.4796C20.6941 23.4567 20.5548 23.3309 20.4096 23.2L20.146 22.9621L19.9761 22.5204C19.8832 22.2775 19.6891 21.7698 19.5456 21.3921C19.4017 21.0145 19.1436 20.3373 18.972 19.8873C18.8005 19.4373 18.654 19.0505 18.646 19.0278C18.6303 18.9826 18.6027 19.0932 18.9988 17.5986C19.0697 17.3311 19.1707 16.9488 19.2238 16.7489C19.2769 16.5491 19.3635 16.2221 19.4166 16.0223C19.6879 14.9975 19.7872 14.6226 19.8343 14.4414L19.8866 14.2424L20.2296 13.9319C20.4181 13.7612 20.9111 13.3152 21.325 12.9409C21.739 12.5665 22.1788 12.1683 22.3024 12.0559L22.5274 11.8515L22.9541 11.8584C23.1889 11.8622 23.7956 11.868 24.3021 11.8712C24.8086 11.8744 25.3661 11.88 25.5406 11.8838C25.8025 11.8893 25.8581 11.8878 25.8581 11.8751C25.8581 11.8665 25.7422 11.5893 25.6008 11.2589L25.3436 10.6582L25.1822 10.6611C25.0935 10.6627 24.8642 10.6717 24.6727 10.6812C24.3284 10.6981 23.2742 10.7496 22.5664 10.7839C19.9273 10.9119 19.935 10.9115 19.8254 10.9429C19.1618 11.1338 18.8786 11.2149 18.1857 11.413C17.9726 11.4739 17.7947 11.5272 17.7909 11.5315C17.7871 11.5358 17.7336 11.6063 17.6724 11.688C17.6113 11.7699 17.3672 12.0943 17.1298 12.409C16.8925 12.7237 16.5779 13.1408 16.4306 13.3359C16.2837 13.531 16.0777 13.804 15.9733 13.9424C15.57 14.4767 15.4507 14.6354 15.1186 15.0757C14.9306 15.3259 14.6338 15.7192 14.4593 15.9496L14.1426 16.3685L14.1421 19.2095L14.1413 22.0505L14.272 22.2763C14.3442 22.4005 14.4848 22.6438 14.585 22.8169C14.6852 22.9899 14.8775 23.3221 15.0125 23.5549C15.1475 23.7879 15.2902 24.035 15.3297 24.1042C15.3696 24.1735 15.409 24.2383 15.4175 24.2482C15.426 24.2581 15.4332 24.2699 15.4332 24.2744C15.4332 24.2789 15.5742 24.5257 15.7462 24.8228C16.0493 25.3462 16.186 25.5822 16.4501 26.0382C16.5193 26.1578 16.6327 26.3535 16.7019 26.473C16.7711 26.5926 16.9269 26.8617 17.0479 27.071L17.2678 27.4515L24.1832 27.4512L31.0982 27.4509L31.2277 27.4119ZM33.2907 26.6476C33.3518 26.5579 33.5029 26.3386 33.6261 26.1603C33.7488 25.982 33.8507 25.8293 33.8515 25.8209C33.8528 25.8126 33.9445 25.6727 34.0553 25.5101C34.1661 25.3474 34.4128 24.9851 34.6034 24.705C35.7162 23.0694 36.1438 22.4411 36.4278 22.0238C36.6027 21.767 36.7441 21.5552 36.7416 21.5532C36.7382 21.5499 33.8226 20.8243 31.5028 20.2494C31.3669 20.2158 31.1453 20.1605 31.0107 20.1267C30.7853 20.0703 30.7636 20.0667 30.7377 20.0822C30.7229 20.0915 30.6579 20.1335 30.5938 20.1757C29.8215 20.6847 28.5215 21.2186 28.161 21.1749C27.9381 21.1479 26.8555 20.5976 26.0152 20.0842C25.8717 19.9966 25.4489 19.7246 25.4331 19.7098C25.4208 19.6985 25.5266 19.6336 25.9779 19.3753C26.9722 18.8057 27.3386 18.5957 27.7428 18.3633L28.1393 18.1353L28.6977 18.3368C29.005 18.4477 29.332 18.5662 29.4241 18.6C29.5166 18.6339 29.5943 18.6595 29.5969 18.657C29.5994 18.6545 29.284 18.208 28.8959 17.6649C28.5075 17.1218 28.1262 16.5873 28.0476 16.4771C27.9118 16.2858 27.8982 16.2609 27.7364 15.9164C27.6434 15.7182 27.4906 15.3937 27.3968 15.1955C27.2461 14.877 27.1348 14.6414 26.9026 14.1484C26.8669 14.0729 26.7684 13.8643 26.6835 13.6849C26.5986 13.5056 26.4699 13.2326 26.3973 13.0784C26.3243 12.9242 26.2271 12.7177 26.1808 12.6194L26.0963 12.4407L25.1151 12.4334C24.5751 12.4294 23.8198 12.4229 23.4364 12.4189L22.7397 12.4118L21.9763 13.1023C21.5564 13.482 21.0333 13.9547 20.8142 14.1525C20.5947 14.3504 20.4067 14.5206 20.396 14.5306C20.3774 14.5484 20.3408 14.6783 20.1349 15.4587C20.0874 15.6381 20.0114 15.9264 19.9655 16.0995C19.9197 16.2726 19.8165 16.6614 19.7367 16.9635C19.6569 17.2656 19.5053 17.8379 19.4 18.2354L19.2089 18.958L19.3716 19.3855C19.4611 19.6206 19.5796 19.9314 19.6344 20.0761C19.6891 20.2209 19.8993 20.7719 20.101 21.3006C20.3026 21.8293 20.4984 22.3431 20.5357 22.4424L20.6041 22.6231L20.751 22.7571C20.8321 22.8309 20.9187 22.9097 20.9433 22.9324C20.9679 22.955 21.1047 23.0784 21.2465 23.2065C21.3887 23.3347 21.6137 23.5378 21.7466 23.6579C21.8795 23.778 22.2357 24.1002 22.5384 24.3739C23.1366 24.9148 23.5234 25.264 23.9756 25.6722C24.1361 25.8168 24.3127 25.9771 24.3683 26.0283L24.4694 26.1215L24.7114 26.1621C24.8447 26.1844 25.2569 26.2547 25.6276 26.3182C26.8597 26.5295 27.7016 26.6742 28.0935 26.7419L28.4811 26.8088L30.8298 26.8097L33.179 26.8106L33.2907 26.6476ZM5.39175 23.7123C5.47963 23.5817 5.57177 23.4465 5.59597 23.4119C5.62017 23.3773 5.92374 22.9306 6.27061 22.4193C7.8135 20.1454 8.03512 19.819 8.22448 19.5412L8.4253 19.2465H11.008H13.591V17.7133V16.1801L13.8738 15.8051C14.1277 15.4688 14.5298 14.9355 14.7051 14.7024C14.7412 14.6546 14.7705 14.6122 14.7705 14.608C14.7705 14.6038 13.7354 14.6004 12.4702 14.6004H10.1694L9.98517 14.8722C9.88327 15.0217 9.71642 15.2676 9.6141 15.4186C9.51135 15.5697 9.17212 16.0692 8.86006 16.5287C8.548 16.9881 8.05338 17.7168 7.76085 18.1479C7.46832 18.5791 7.02592 19.2305 6.77797 19.5955C6.53002 19.9606 6.0647 20.6455 5.74457 21.1175C5.42402 21.5895 4.95317 22.2832 4.698 22.6591C4.44241 23.0349 4.23352 23.3475 4.23352 23.3475C4.23352 23.3521 4.36047 23.4289 4.9693 23.7932C5.0746 23.856 5.17565 23.9169 5.1939 23.9284C5.21258 23.9399 5.22956 23.9496 5.22956 23.9496C5.22956 23.9496 5.30344 23.8429 5.39175 23.7123ZM37.5071 21.1502C37.5071 21.1463 37.6739 20.5086 37.8777 19.7332L38.2484 18.3235L38.2101 18.21C38.1749 18.1039 38.1134 17.9249 37.8497 17.1638C37.6782 16.6678 37.5733 16.3633 36.7934 14.1026C36.7522 13.983 36.6074 13.5634 36.4715 13.17C36.2257 12.4584 36.1493 12.2371 35.9845 11.7567C35.9035 11.5191 35.8958 11.5027 35.8521 11.4649C35.8266 11.4429 35.7145 11.3457 35.6033 11.249C35.4101 11.0811 35.1753 10.8783 34.8276 10.5781C34.7401 10.5025 34.538 10.3274 34.3784 10.189C34.2188 10.0505 34.0014 9.86255 33.8952 9.77129C33.7895 9.68003 33.6248 9.53774 33.5293 9.45513C33.2707 9.23061 33.0542 9.04338 32.8228 8.8433C32.6317 8.6783 32.2776 8.37165 32.0288 8.15544C31.9545 8.09099 31.9138 8.06418 31.8777 8.05557C31.8505 8.04912 31.6365 8.00531 31.4017 7.95826C30.6193 7.8013 28.7524 7.42493 28.6157 7.39656C28.5414 7.3812 27.9806 7.2678 27.3688 7.14462C25.7664 6.82192 24.857 6.63832 24.7347 6.6128C24.6761 6.60056 24.1781 6.50022 23.6283 6.3898C23.078 6.27942 22.6085 6.18427 22.5838 6.17843C22.5592 6.17255 22.5372 6.16987 22.5346 6.17251C22.5291 6.17787 22.6518 6.33457 23.2899 7.13926C23.9938 8.02689 23.9968 8.03087 24.4418 8.59257C25.4285 9.83915 25.6183 10.0788 25.6802 10.1556C25.7163 10.2003 25.7456 10.2429 25.7456 10.2506C25.7456 10.2618 26.1859 11.267 26.3379 11.6022C26.3591 11.6494 26.3884 11.7164 26.4029 11.751C26.4173 11.7856 26.4466 11.8531 26.4682 11.901C26.4903 11.9488 26.5506 12.0853 26.6033 12.2042C26.6899 12.401 26.8304 12.7036 27.0656 13.1986C27.1136 13.2993 27.1764 13.4332 27.2057 13.4961C27.235 13.5591 27.359 13.8217 27.4808 14.0797C27.6031 14.3378 27.7322 14.6107 27.7678 14.6862C28.0073 15.195 28.119 15.4319 28.2429 15.6951L28.3839 15.9945L29.2245 17.1706C29.6865 17.8175 30.2546 18.6119 30.4859 18.9359L30.9075 19.525L31.0311 19.5556C31.2026 19.5982 31.6145 19.7006 31.9745 19.7904C32.1413 19.832 32.495 19.9199 32.7608 19.9858C33.3531 20.1325 33.2953 20.1182 35.5863 20.689C36.6146 20.9453 37.468 21.1556 37.4816 21.1563C37.4956 21.157 37.5071 21.1543 37.5071 21.1502ZM28.4081 20.5775C28.8709 20.4566 29.7026 20.0786 30.2244 19.7519C30.2817 19.7162 30.3284 19.683 30.3284 19.6781C30.3284 19.6731 30.2966 19.6241 30.2567 19.5692L30.1849 19.4693L29.99 19.399C29.8831 19.3603 29.4385 19.1994 29.0029 19.0415C28.5669 18.8836 28.2039 18.7544 28.1962 18.7544C28.1886 18.7544 27.9559 18.8841 27.68 19.0426C27.404 19.2012 27.0291 19.4162 26.8474 19.5206C26.6657 19.6249 26.5154 19.7154 26.5137 19.7216C26.5098 19.7339 26.5731 19.7719 26.9081 19.9595C27.3348 20.1982 27.8184 20.4436 28.1215 20.5751C28.234 20.624 28.2302 20.624 28.4081 20.5775ZM9.37379 14.1723C9.46592 14.1509 9.6124 14.1169 9.69858 14.0967C9.7852 14.0766 9.86162 14.0555 9.86842 14.0499C9.87563 14.0438 10.9761 14.0408 12.5419 14.0425L15.2031 14.0454L15.2749 13.9481C15.3148 13.8947 15.4345 13.735 15.5419 13.5934C15.7903 13.2648 16.6059 12.1828 16.9524 11.722C17.0993 11.5271 17.2194 11.3628 17.2203 11.3568C17.2211 11.346 17.1557 11.3218 16.2701 11.0032C16.017 10.912 15.6782 10.7902 15.5177 10.7323C15.3568 10.6744 15.0991 10.5818 14.9446 10.5264C14.4822 10.3605 13.7439 10.0943 13.7248 10.0864C13.7065 10.079 13.6798 10.1028 12.8608 10.852C12.4061 11.2684 12.1849 11.4704 11.6083 11.9971C11.3056 12.2736 10.9341 12.6132 10.7829 12.7516C10.6314 12.8901 10.4165 13.0867 10.3053 13.1884C9.86162 13.5941 9.60815 13.8252 9.40945 14.0053C9.22816 14.1691 9.18571 14.2114 9.20227 14.2114C9.20227 14.2114 9.28123 14.1938 9.37379 14.1723ZM17.987 10.8882C18.1055 10.8542 18.2961 10.7997 18.4103 10.7671C18.5245 10.7345 18.7139 10.6802 18.8315 10.6463C18.9487 10.6126 19.2242 10.5338 19.4437 10.4714L19.8424 10.3579L20.084 10.3449C20.2169 10.3378 20.4822 10.3243 20.6737 10.3149C20.8652 10.3055 21.1713 10.2901 21.3535 10.2806C21.5356 10.2711 21.9428 10.2505 22.2578 10.2347C23.3833 10.1782 24.5734 10.1179 24.7768 10.1071C24.8523 10.103 24.9143 10.0964 24.9143 10.0925C24.9143 10.0843 24.7347 9.85602 23.7926 8.66697C22.8683 7.50079 22.496 7.03095 21.9466 6.33747L21.4791 5.74739L20.9191 5.5721C20.6113 5.47565 20.3213 5.38478 20.275 5.37012C20.0734 5.30645 18.6804 4.86961 18.6294 4.85422C18.5594 4.83307 17.9446 4.64051 17.5395 4.51301C17.3727 4.4605 17.0114 4.34723 16.7363 4.26138C16.4616 4.17548 16.1075 4.06467 15.9499 4.01511C15.7924 3.96554 15.1034 3.74963 14.4185 3.53524L13.1737 3.1455H10.0459H6.9185L5.50172 3.86706C4.72263 4.26393 4.08917 4.59272 4.08917 4.59272C4.09511 4.59852 4.70649 4.90884 4.87972 4.99379C4.95996 5.03319 5.29877 5.20312 5.63206 5.37137C5.96577 5.53966 6.37038 5.74303 6.53087 5.8233C6.88623 6.00085 7.45431 6.28617 8.11494 6.6186C8.38666 6.75544 8.70509 6.91508 8.8227 6.97334C8.93988 7.0316 9.30374 7.21443 9.63151 7.3796C9.95885 7.54478 10.3431 7.73789 10.4849 7.80874C10.6271 7.87954 10.971 8.05207 11.2491 8.19207C11.5268 8.33212 11.911 8.52519 12.1025 8.62121C12.9024 9.02206 13.2055 9.17413 13.653 9.39912C13.9269 9.53683 14.1837 9.65789 14.2653 9.68773C14.3425 9.71597 14.4966 9.77151 14.6079 9.81117C14.8304 9.89049 16.6768 10.5555 17.343 10.7962C17.5748 10.8799 17.768 10.9491 17.768 10.9491C17.768 10.9491 17.8686 10.9222 17.987 10.8882ZM30.9916 7.29254C30.9916 7.28873 30.9772 7.26684 30.9598 7.24392C30.9419 7.22095 30.7305 6.92672 30.4898 6.58997C29.7476 5.55099 29.2971 4.92156 29.1587 4.72888L29.0263 4.54424L28.5851 4.31829C28.3423 4.19404 28.0124 4.02419 27.8519 3.94089C27.6914 3.85759 27.2618 3.63614 26.8971 3.44878C26.5324 3.26141 26.0624 3.01938 25.8522 2.91091C25.6425 2.80243 25.1843 2.56633 24.8349 2.38619L24.1993 2.05865L23.9361 2.03564C23.7913 2.02296 23.3294 1.98421 22.9091 1.94957C22.4892 1.91492 21.9912 1.87362 21.8026 1.85779C20.5166 1.74971 19.8208 1.69322 19.8174 1.69668C19.8131 1.70105 19.9405 1.81878 20.8648 2.66507C21.2044 2.97617 21.5054 3.25203 21.533 3.27802C21.5611 3.30406 21.8438 3.56357 22.1623 3.85477C22.4803 4.14594 22.8063 4.44459 22.8866 4.51846C23.0101 4.63195 24.0363 5.57223 24.3878 5.89436L24.497 5.99406L25.006 6.09712C25.2862 6.15378 25.7477 6.24699 26.0322 6.30425C26.6533 6.42933 27.8791 6.67686 28.1831 6.73862C28.3037 6.7631 28.7991 6.86314 29.284 6.96097C29.7693 7.05881 30.3403 7.17446 30.5534 7.21801C30.9394 7.29686 30.9916 7.30573 30.9916 7.29254Z" stroke="#002946"/>
</svg>
